<svg width="16" height="16" viewBox="0 0 16 16" fill="none" xmlns="http://www.w3.org/2000/svg">
<path d="M13.25 3.33294H11.5V2.74971C11.5 1.78504 10.7148 1 9.75 1H2.75C1.78517 1 1 1.78504 1 2.74971V11.4131C1 11.8762 1.25375 12.2996 1.6615 12.5177C1.847 12.6175 2.05058 12.6665 2.25358 12.6665C2.49625 12.6665 2.73833 12.5959 2.94775 12.4565L4.5 11.4218V13.248H10.7399L13.0522 14.79C13.2617 14.9294 13.5037 15 13.7464 15C13.9494 15 14.1524 14.9504 14.3385 14.8507C14.7462 14.632 15 14.2085 15 13.746V5.08265C15 4.11798 14.2148 3.33294 13.25 3.33294ZM2.30083 11.486C2.28975 11.493 2.25767 11.514 2.21217 11.4901C2.16608 11.4656 2.16608 11.4265 2.16608 11.4137V2.74971C2.16608 2.42776 2.428 2.16647 2.74942 2.16647H9.74942C10.0714 2.16647 10.3327 2.42776 10.3327 2.74971V9.74854H4.90658L2.30083 11.486ZM13.8333 13.7466C13.8333 13.7589 13.8333 13.7985 13.7878 13.823C13.7412 13.8481 13.7097 13.8265 13.6992 13.8189L11.0934 12.0815H5.66667V10.915H11.5V4.49942H13.25C13.572 4.49942 13.8333 4.76071 13.8333 5.08265V13.7466ZM5.66667 5.08265H4.5C4.5 4.56416 4.72808 4.0754 5.12533 3.74179C5.52258 3.40818 6.04525 3.26704 6.56208 3.36094C7.26733 3.484 7.84775 4.06374 7.972 4.77062C8.10208 5.5125 7.74917 6.25379 7.0935 6.61598C6.83275 6.75946 6.83275 6.80145 6.83275 6.83236H5.66608C5.66608 6.06949 6.27158 5.73646 6.53 5.59415C6.69917 5.50142 6.87708 5.28212 6.82283 4.97242C6.78258 4.74379 6.58833 4.54958 6.36025 4.50992C6.18175 4.47725 6.00908 4.52275 5.87492 4.63589C5.74192 4.74671 5.66608 4.91002 5.66608 5.08324L5.66667 5.08265ZM5.66667 7.4156H6.83333V8.58207H5.66667V7.4156Z" fill="#565D6D"/>
</svg>
