<svg width="16" height="16" viewBox="0 0 16 16" fill="none" xmlns="http://www.w3.org/2000/svg">
<path d="M8.02966 10.1392C8.28452 10.3971 8.28233 10.8131 8.02441 11.068L6.36345 12.7101C6.15151 12.9216 5.87257 13.028 5.59319 13.028C5.31381 13.028 5.0318 12.9216 4.8181 12.7079L3.15977 11.0684C2.90185 10.8135 2.89966 10.3975 3.15452 10.1396C3.40938 9.88125 3.82582 9.8795 4.08374 10.1344L4.93546 10.9764V3.15685C4.93546 2.79427 5.22929 2.5 5.59231 2.5C5.95533 2.5 6.24916 2.79427 6.24916 3.15685V10.9764L7.10088 10.1344C7.35924 9.8795 7.77481 9.88125 8.0301 10.1396L8.02966 10.1392ZM12.8413 4.46048L11.183 2.82098C10.7565 2.39403 10.062 2.39403 9.63763 2.81835L7.97668 4.46048C7.71875 4.71534 7.71657 5.13134 7.97142 5.38927C8.22628 5.64763 8.64272 5.64938 8.90065 5.39452L9.75236 4.55244V12.3528C9.75236 12.7153 10.0462 13.0096 10.4092 13.0096C10.7722 13.0096 11.0661 12.7153 11.0661 12.3528V4.552L11.9178 5.39408C12.0456 5.52064 12.2129 5.58413 12.3798 5.58413C12.5492 5.58413 12.7183 5.51932 12.847 5.38927C13.1019 5.13134 13.0992 4.71534 12.8413 4.46048Z" fill="#171A1F"/>
</svg>
