<svg width="8" height="4" viewBox="0 0 8 4" fill="none" xmlns="http://www.w3.org/2000/svg">
<path d="M3.91486 3.99997C3.37586 3.99997 2.89359 3.9385 2.46807 3.81557C2.04254 3.69264 1.67375 3.5177 1.36169 3.29075C1.05909 3.06381 0.803776 2.7943 0.59574 2.48225C0.39716 2.16074 0.245861 1.8014 0.141843 1.40424C0.0472809 1.00708 0 0.576828 0 0.113475V0.0712287H2.29785V0C2.29785 0.482266 2.36878 0.86997 2.51062 1.16311C2.65246 1.4468 2.84158 1.65011 3.07799 1.77304C3.32385 1.89597 3.60281 1.95743 3.91486 1.95743C4.23637 1.95743 4.51533 1.89597 4.75173 1.77304C4.9976 1.65011 5.19145 1.4468 5.33329 1.16311C5.47513 0.879426 5.54605 0.491722 5.54605 0V0.0712287H7.84391V0.113475C7.84391 1.34278 7.51294 2.29785 6.85101 2.9787C6.18908 3.65955 5.21036 3.99997 3.91486 3.99997Z" fill="black" fill-opacity="0.5"/>
</svg>
