<svg width="16" height="16" viewBox="0 0 16 16" fill="none" xmlns="http://www.w3.org/2000/svg">
<g clip-path="url(#clip0_80_7416)">
<circle cx="5.65002" cy="10" r="4.68123" stroke="#565D6D" stroke-width="1.33749"/>
<path d="M5.64565 12.7499C5.31842 12.7499 5.02563 12.7126 4.76729 12.638C4.50895 12.5634 4.28506 12.4571 4.09561 12.3194C3.9119 12.1816 3.7569 12.018 3.6306 11.8285C3.51004 11.6333 3.41818 11.4152 3.35503 11.1741C3.29763 10.9329 3.26892 10.6717 3.26892 10.3904V10.3648H4.66396V10.3215C4.66396 10.6143 4.70701 10.8497 4.79313 11.0277C4.87924 11.1999 4.99406 11.3233 5.13758 11.3979C5.28684 11.4726 5.4562 11.5099 5.64565 11.5099C5.84084 11.5099 6.01019 11.4726 6.15372 11.3979C6.30298 11.3233 6.42067 11.1999 6.50678 11.0277C6.5929 10.8554 6.63595 10.6201 6.63595 10.3215V10.3648H8.03099V10.3904C8.03099 11.1367 7.83006 11.7166 7.42819 12.1299C7.02633 12.5433 6.43215 12.7499 5.64565 12.7499Z" fill="#565D6D"/>
<path d="M4.087 9.51211C3.82292 9.51211 3.61912 9.45758 3.47559 9.3485C3.33781 9.23368 3.26892 9.07007 3.26892 8.85765C3.26892 8.6395 3.33781 8.47588 3.47559 8.36681C3.61912 8.25199 3.82292 8.19458 4.087 8.19458C4.35682 8.19458 4.56062 8.25199 4.6984 8.36681C4.84192 8.48162 4.91369 8.64524 4.91369 8.85765C4.91369 9.06432 4.84192 9.22507 4.6984 9.33989C4.56062 9.4547 4.35682 9.51211 4.087 9.51211Z" fill="#565D6D"/>
<path d="M7.14693 9.51211C6.88285 9.51211 6.67905 9.45758 6.53553 9.3485C6.39775 9.23368 6.32886 9.07007 6.32886 8.85765C6.32886 8.6395 6.39775 8.47588 6.53553 8.36681C6.67905 8.25199 6.88285 8.19458 7.14693 8.19458C7.41676 8.19458 7.62056 8.25199 7.75834 8.36681C7.90186 8.48162 7.97362 8.64524 7.97362 8.85765C7.97362 9.06432 7.90186 9.22507 7.75834 9.33989C7.62056 9.4547 7.41676 9.51211 7.14693 9.51211Z" fill="#565D6D"/>
<path d="M10 3.5H15M12.5 1V6" stroke="#565D6D" stroke-width="1.3" stroke-linecap="round" stroke-linejoin="round"/>
</g>
<defs>
<clipPath id="clip0_80_7416">
<rect width="16" height="16" fill="white"/>
</clipPath>
</defs>
</svg>
