<svg width="16" height="16" viewBox="0 0 16 16" fill="none" xmlns="http://www.w3.org/2000/svg">
<g clip-path="url(#clip0_297_120577)">
<path d="M8.66674 0.666663C8.66674 0.489852 8.73698 0.320283 8.862 0.195259C8.98703 0.0702344 9.15659 -3.47011e-06 9.33341 -3.47011e-06C11.1009 0.00193759 12.7955 0.70494 14.0453 1.95476C15.2951 3.20458 15.9981 4.89915 16.0001 6.66666C16.0001 6.84347 15.9298 7.01304 15.8048 7.13807C15.6798 7.26309 15.5102 7.33333 15.3334 7.33333C15.1566 7.33333 14.987 7.26309 14.862 7.13807C14.737 7.01304 14.6667 6.84347 14.6667 6.66666C14.6652 5.25266 14.1027 3.89703 13.1029 2.89718C12.103 1.89733 10.7474 1.33492 9.33341 1.33333C9.15659 1.33333 8.98703 1.26309 8.862 1.13807C8.73698 1.01304 8.66674 0.843474 8.66674 0.666663ZM9.33341 4C10.0406 4 10.7189 4.28095 11.219 4.78104C11.7191 5.28114 12.0001 5.95942 12.0001 6.66666C12.0001 6.84347 12.0703 7.01304 12.1953 7.13807C12.3204 7.26309 12.4899 7.33333 12.6667 7.33333C12.8435 7.33333 13.0131 7.26309 13.1381 7.13807C13.2632 7.01304 13.3334 6.84347 13.3334 6.66666C13.3323 5.60612 12.9106 4.58932 12.1607 3.83941C11.4107 3.08949 10.3939 2.66772 9.33341 2.66666C9.15659 2.66666 8.98703 2.7369 8.862 2.86193C8.73698 2.98695 8.66674 3.15652 8.66674 3.33333C8.66674 3.51014 8.73698 3.67971 8.862 3.80473C8.98703 3.92976 9.15659 4 9.33341 4ZM15.3954 11.1593C15.7817 11.5467 15.9987 12.0715 15.9987 12.6187C15.9987 13.1658 15.7817 13.6906 15.3954 14.078L14.7887 14.7773C9.32874 20.0047 -3.95793 6.72133 1.18874 1.244L1.95541 0.57733C2.34325 0.201781 2.86336 -0.00597075 3.40321 -0.000980242C3.94306 0.00401027 4.45924 0.221342 4.84007 0.603997C4.86074 0.624663 6.09607 2.22933 6.09607 2.22933C6.46263 2.61442 6.66668 3.12595 6.66581 3.6576C6.66494 4.18925 6.45922 4.70011 6.09141 5.084L5.31941 6.05466C5.74664 7.09274 6.37478 8.03616 7.16774 8.83073C7.96071 9.62529 8.90286 10.2553 9.94007 10.6847L10.9167 9.908C11.3007 9.54047 11.8114 9.33499 12.3429 9.33425C12.8744 9.3335 13.3858 9.53755 13.7707 9.904C13.7707 9.904 15.3747 11.1387 15.3954 11.1593ZM14.4781 12.1287C14.4781 12.1287 12.8827 10.9013 12.8621 10.8807C12.7247 10.7445 12.5391 10.6681 12.3457 10.6681C12.1523 10.6681 11.9667 10.7445 11.8294 10.8807C11.8114 10.8993 10.4667 11.9707 10.4667 11.9707C10.3761 12.0428 10.2683 12.0901 10.1538 12.1078C10.0394 12.1256 9.92229 12.1133 9.81407 12.072C8.47038 11.5717 7.2499 10.7885 6.2353 9.77538C5.22069 8.76228 4.43567 7.54295 3.93341 6.2C3.88887 6.0903 3.87435 5.97072 3.89134 5.85356C3.90833 5.73639 3.95621 5.62586 4.03007 5.53333C4.03007 5.53333 5.10141 4.188 5.11941 4.17066C5.25558 4.03332 5.33199 3.84774 5.33199 3.65433C5.33199 3.46092 5.25558 3.27534 5.11941 3.138C5.09874 3.118 3.87141 1.52133 3.87141 1.52133C3.73201 1.39633 3.55007 1.32939 3.3629 1.33423C3.17573 1.33906 2.9975 1.41531 2.86474 1.54733L2.09807 2.214C-1.66326 6.73666 9.85074 17.612 13.8141 13.8667L14.4214 13.1667C14.5637 13.0348 14.6492 12.8528 14.6598 12.6591C14.6704 12.4654 14.6052 12.2752 14.4781 12.1287Z" fill="black"/>
</g>
<defs>
<clipPath id="clip0_297_120577">
<rect width="16" height="16" fill="white"/>
</clipPath>
</defs>
</svg>
