<svg width="13" height="14" viewBox="0 0 13 14" fill="none" xmlns="http://www.w3.org/2000/svg">
<path d="M5.05555 5.84011V1.08487C5.05555 0.262559 5.93573 -0.259948 6.65764 0.133818L12.4354 3.28533C12.7834 3.47516 13 3.83994 13 4.23638V12.621C13 13.2194 12.515 13.7044 11.9166 13.7044H1.08333C0.485025 13.7044 0 13.2194 0 12.621V5.26025C0 4.47629 0.806909 3.95189 1.5233 4.27028L5.05555 5.84011ZM6.49999 1.69312V6.39614C6.49999 7.1801 5.69308 7.70449 4.97669 7.38611L1.44444 5.81628V12.2599H11.5555V5.09367C11.5555 4.69722 11.339 4.33244 10.9909 4.14261L6.49999 1.69312Z" fill="#F6F6F6"/>
</svg>
