<svg width="16" height="16" viewBox="0 0 16 16" fill="none" xmlns="http://www.w3.org/2000/svg">
<path d="M6.68801 3.32792C6.68801 2.95679 6.38714 2.65592 6.01601 2.65592L3.32801 2.65592C2.95688 2.65592 2.65601 2.95679 2.65601 3.32792L2.65601 6.01592C2.65601 6.38705 2.95688 6.68792 3.32801 6.68792H6.01601C6.38714 6.68792 6.68801 6.38705 6.68801 6.01592V3.32792ZM8.03201 6.01592C8.03201 7.12936 7.12945 8.03192 6.01601 8.03192H3.32801C2.21461 8.03192 1.31201 7.12936 1.31201 6.01592L1.31201 3.32792C1.31201 2.21452 2.21461 1.31192 3.32801 1.31192L6.01601 1.31192C7.12945 1.31192 8.03201 2.21452 8.03201 3.32792V6.01592Z" fill="#818181"/>
<path d="M3.98401 9.99986L3.98401 7.31186C3.98401 6.94072 4.28488 6.63986 4.65601 6.63986C5.02714 6.63986 5.32801 6.94072 5.32801 7.31186L5.32801 9.99986L5.33129 10.0661C5.34654 10.22 5.41458 10.3647 5.52488 10.475C5.65091 10.601 5.82178 10.6719 6.00001 10.6719H8.68801C9.05915 10.6719 9.36001 10.9727 9.36001 11.3439C9.36001 11.715 9.05915 12.0159 8.68801 12.0159H6.00001C5.46533 12.0159 4.95271 11.8033 4.57464 11.4252C4.24388 11.0945 4.03972 10.6608 3.99385 10.1994L3.98401 9.99986Z" fill="#818181"/>
<path d="M13.344 9.98399C13.344 9.61284 13.0432 9.31199 12.672 9.31199L9.98402 9.31199C9.61287 9.31199 9.31202 9.61284 9.31202 9.98399L9.31202 12.672C9.31202 13.0431 9.61287 13.344 9.98402 13.344H12.672C13.0432 13.344 13.344 13.0431 13.344 12.672V9.98399ZM14.688 12.672C14.688 13.7854 13.7855 14.688 12.672 14.688H9.98402C8.87058 14.688 7.96802 13.7854 7.96802 12.672V9.98399C7.96802 8.87055 8.87058 7.96799 9.98402 7.96799H12.672C13.7855 7.96799 14.688 8.87055 14.688 9.98399V12.672Z" fill="#818181"/>
</svg>
