<svg width="16" height="16" viewBox="0 0 16 16" fill="none" xmlns="http://www.w3.org/2000/svg">
<path d="M8.19996 8.14668C8.55569 7.83874 8.84103 7.45794 9.03656 7.03001C9.23209 6.60212 9.33329 6.13715 9.33329 5.66668C9.33329 4.78262 8.98209 3.93478 8.35696 3.30966C7.73189 2.68453 6.88403 2.33334 5.99996 2.33334C5.11591 2.33334 4.26806 2.68453 3.64294 3.30966C3.01781 3.93478 2.66663 4.78262 2.66663 5.66668C2.66662 6.13715 2.76783 6.60212 2.96338 7.03001C3.15893 7.45794 3.44424 7.83874 3.79996 8.14668C2.86672 8.56928 2.07494 9.25168 1.51928 10.1123C0.963626 10.9731 0.667606 11.9755 0.666626 13C0.666626 13.1768 0.736866 13.3464 0.861886 13.4714C0.986913 13.5964 1.15648 13.6667 1.33329 13.6667C1.51011 13.6667 1.67967 13.5964 1.8047 13.4714C1.92972 13.3464 1.99996 13.1768 1.99996 13C1.99996 11.9391 2.42139 10.9217 3.17153 10.1716C3.92168 9.42141 4.93909 9.00001 5.99996 9.00001C7.06083 9.00001 8.07823 9.42141 8.82836 10.1716C9.57856 10.9217 9.99996 11.9391 9.99996 13C9.99996 13.1768 10.0702 13.3464 10.1952 13.4714C10.3202 13.5964 10.4898 13.6667 10.6666 13.6667C10.8434 13.6667 11.013 13.5964 11.138 13.4714C11.263 13.3464 11.3333 13.1768 11.3333 13C11.3323 11.9755 11.0363 10.9731 10.4806 10.1123C9.92496 9.25168 9.13323 8.56928 8.19996 8.14668ZM5.99996 7.66668C5.6044 7.66668 5.21772 7.54941 4.88882 7.32961C4.55992 7.10988 4.30357 6.79748 4.1522 6.43204C4.00083 6.06659 3.96122 5.66446 4.03839 5.2765C4.11556 4.88854 4.30604 4.53217 4.58575 4.25246C4.86545 3.97276 5.22182 3.78228 5.60978 3.7051C5.99774 3.62794 6.39987 3.66754 6.76536 3.81892C7.13076 3.97029 7.44316 4.22664 7.66289 4.55554C7.88269 4.88444 7.99996 5.27112 7.99996 5.66668C7.99996 6.19711 7.78923 6.70581 7.41416 7.08088C7.03909 7.45594 6.53039 7.66668 5.99996 7.66668ZM12.4933 7.88001C12.92 7.39954 13.1986 6.80608 13.2958 6.1709C13.393 5.53576 13.3046 4.88606 13.0412 4.30001C12.7777 3.71396 12.3505 3.21654 11.811 2.86762C11.2714 2.51871 10.6425 2.33317 9.99996 2.33334C9.82316 2.33334 9.65356 2.40358 9.52856 2.5286C9.40356 2.65363 9.33329 2.8232 9.33329 3.00001C9.33329 3.17682 9.40356 3.34639 9.52856 3.47142C9.65356 3.59644 9.82316 3.66668 9.99996 3.66668C10.5304 3.66668 11.0391 3.87739 11.4142 4.25246C11.7892 4.62754 12 5.13624 12 5.66668C11.999 6.01684 11.9062 6.36061 11.7307 6.66362C11.5552 6.96661 11.3032 7.21828 11 7.39334C10.9011 7.45034 10.8186 7.53181 10.7602 7.62981C10.7018 7.72788 10.6696 7.83928 10.6666 7.95334C10.6638 8.06654 10.6899 8.17854 10.7424 8.27888C10.7949 8.37914 10.872 8.46448 10.9666 8.52668L11.2266 8.70001L11.3133 8.74668C12.1169 9.12781 12.7948 9.73068 13.2673 10.4842C13.7397 11.2377 13.987 12.1106 13.98 13C13.98 13.1768 14.0502 13.3464 14.1752 13.4714C14.3002 13.5964 14.4698 13.6667 14.6466 13.6667C14.8234 13.6667 14.993 13.5964 15.118 13.4714C15.243 13.3464 15.3133 13.1768 15.3133 13C15.3188 11.9769 15.0625 10.9695 14.569 10.0734C14.0754 9.17728 13.3608 8.42221 12.4933 7.88001Z" fill="black"/>
</svg>
