<svg width="16" height="16" viewBox="0 0 16 16" fill="none" xmlns="http://www.w3.org/2000/svg">
<path d="M11.6083 2.5H3.79167C2.25234 2.5 1 3.75234 1 5.29167V10.875C1 12.4143 2.25234 13.6667 3.79167 13.6667H11.6083C13.1477 13.6667 14.4 12.4143 14.4 10.875V5.29167C14.4 3.75234 13.1477 2.5 11.6083 2.5ZM3.79167 3.61667H11.6083C12.5318 3.61667 13.2833 4.36819 13.2833 5.29167H2.11667C2.11667 4.36819 2.86818 3.61667 3.79167 3.61667ZM2.11667 10.875V6.40834H7.14167V12.55H3.79167C2.86818 12.55 2.11667 11.7985 2.11667 10.875ZM11.6083 12.55H8.25834V6.40834H13.2833V10.875C13.2833 11.7985 12.5318 12.55 11.6083 12.55Z" fill="#171A1F"/>
</svg>
