<svg width="16" height="16" viewBox="0 0 16 16" fill="none" xmlns="http://www.w3.org/2000/svg">
<path d="M13.9583 15H2.04167C1.74375 15 1.5 14.7563 1.5 14.4583C1.5 14.1604 1.74375 13.9167 2.04167 13.9167H13.9583C14.2563 13.9167 14.5 14.1604 14.5 14.4583C14.5 14.7563 14.2563 15 13.9583 15ZM9.50042 12.2158L12.94 8.55958C13.4113 8.08833 13.5467 7.41667 13.2921 6.80458C13.0375 6.1925 12.4688 5.80792 11.8025 5.8025H10.6813L10.665 4.15042C10.665 2.96417 9.70083 2 8.51458 2H7.44208C6.25583 2 5.29167 2.96417 5.29167 4.15583V5.79167H4.18125C3.515 5.79167 2.94625 6.17625 2.69167 6.79375C2.43708 7.40583 2.5725 8.08292 3.03292 8.53792L6.46167 12.2213C6.87875 12.6383 7.43125 12.8496 7.98375 12.8496C8.53625 12.8496 9.08333 12.6383 9.50583 12.2213L9.50042 12.2158ZM5.83333 6.875C5.97958 6.875 6.115 6.81542 6.21792 6.71792C6.32083 6.615 6.375 6.47958 6.375 6.33333V4.15042C6.375 3.56 6.85167 3.08333 7.44208 3.08333H8.51458C9.105 3.08333 9.58167 3.56542 9.58167 4.15583L9.59792 6.34958C9.59792 6.6475 9.84167 6.88583 10.1396 6.88583H11.7917C12.1221 6.88583 12.2521 7.14042 12.2792 7.21625C12.3117 7.29208 12.3983 7.56292 12.1492 7.80667L8.72042 11.4521C8.30333 11.8638 7.63167 11.8583 7.23083 11.4575L3.80208 7.77417C3.56917 7.54125 3.65583 7.27042 3.68833 7.19458C3.72083 7.11875 3.85083 6.86417 4.17583 6.86417H5.83333V6.875Z" fill="black"/>
</svg>
