<svg width="12" height="12" viewBox="0 0 12 12" fill="none" xmlns="http://www.w3.org/2000/svg">
<g clip-path="url(#clip0_6_42200)">
<path d="M5.49995 8.50002H6.49995V5.50002H5.49995V8.50002ZM5.99995 4.50002C6.14162 4.50002 6.26045 4.45202 6.35645 4.35602C6.45245 4.26002 6.50029 4.14135 6.49995 4.00002C6.49962 3.85868 6.45162 3.74002 6.35595 3.64402C6.26029 3.54802 6.14162 3.50002 5.99995 3.50002C5.85829 3.50002 5.73962 3.54802 5.64395 3.64402C5.54829 3.74002 5.50029 3.85868 5.49995 4.00002C5.49962 4.14135 5.54762 4.26018 5.64395 4.35652C5.74029 4.45285 5.85895 4.50068 5.99995 4.50002ZM5.99995 11C5.30829 11 4.65829 10.8687 4.04995 10.606C3.44162 10.3434 2.91245 9.98719 2.46245 9.53752C2.01245 9.08785 1.65628 8.55868 1.39395 7.95002C1.13162 7.34135 1.00028 6.69135 0.999949 6.00002C0.999616 5.30868 1.13095 4.65868 1.39395 4.05002C1.65695 3.44135 2.01312 2.91218 2.46245 2.46251C2.91178 2.01285 3.44095 1.65668 4.04995 1.39401C4.65895 1.13135 5.30895 1.00001 5.99995 1.00001C6.69095 1.00001 7.34095 1.13135 7.94995 1.39401C8.55895 1.65668 9.08812 2.01285 9.53745 2.46251C9.98679 2.91218 10.3431 3.44135 10.6065 4.05002C10.8698 4.65868 11.001 5.30868 11 6.00002C10.999 6.69135 10.8676 7.34135 10.606 7.95002C10.3443 8.55868 9.98812 9.08785 9.53745 9.53752C9.08679 9.98719 8.55762 10.3435 7.94995 10.6065C7.34229 10.8695 6.69229 11.0007 5.99995 11ZM5.99995 10C7.11662 10 8.06245 9.61252 8.83745 8.83752C9.61245 8.06252 9.99995 7.11668 9.99995 6.00002C9.99995 4.88335 9.61245 3.93752 8.83745 3.16251C8.06245 2.38751 7.11662 2.00001 5.99995 2.00001C4.88328 2.00001 3.93745 2.38751 3.16245 3.16251C2.38745 3.93752 1.99995 4.88335 1.99995 6.00002C1.99995 7.11668 2.38745 8.06252 3.16245 8.83752C3.93745 9.61252 4.88328 10 5.99995 10Z" fill="#818181"/>
</g>
<defs>
<clipPath id="clip0_6_42200">
<rect width="11.3062" height="11.3062" fill="white" transform="scale(1.06136)"/>
</clipPath>
</defs>
</svg>
