<svg width="16" height="16" viewBox="0 0 16 16" fill="none" xmlns="http://www.w3.org/2000/svg">
<rect x="0.4" y="0.4" width="15.2" height="15.2" rx="3.6" stroke="#DBDBDB" stroke-width="0.8"/>
<path d="M7.84306 12.144C7.31394 12.144 6.84052 12.0837 6.4228 11.963C6.00507 11.8423 5.64305 11.6706 5.33672 11.4478C5.03967 11.225 4.78903 10.9605 4.58481 10.6541C4.38988 10.3385 4.24135 9.98577 4.13924 9.5959C4.04641 9.20602 4 8.78366 4 8.3288V8.28733H6.25571V8.21741C6.25571 8.69083 6.32533 9.07142 6.46457 9.35919C6.60381 9.63767 6.78947 9.83725 7.02154 9.95792C7.26289 10.0786 7.53673 10.1389 7.84306 10.1389C8.15867 10.1389 8.43251 10.0786 8.66458 9.95792C8.90593 9.83725 9.09623 9.63767 9.23547 9.35919C9.37471 9.0807 9.44433 8.70011 9.44433 8.21741V8.28733H11.7V8.3288C11.7 9.53556 11.3751 10.4731 10.7254 11.1415C10.0756 11.8098 9.1148 12.144 7.84306 12.144Z" fill="black" fill-opacity="0.5"/>
<path d="M5.32279 6.90859C4.89579 6.90859 4.56625 6.8204 4.33418 6.64403C4.11139 6.45838 4 6.19382 4 5.85036C4 5.49761 4.11139 5.23305 4.33418 5.05668C4.56625 4.87103 4.89579 4.7782 5.32279 4.7782C5.75908 4.7782 6.08862 4.87103 6.31141 5.05668C6.54347 5.24234 6.65951 5.50689 6.65951 5.85036C6.65951 6.18454 6.54347 6.44445 6.31141 6.63011C6.08862 6.81576 5.75908 6.90859 5.32279 6.90859Z" fill="black" fill-opacity="0.5"/>
<path d="M10.2704 6.90859C9.84342 6.90859 9.51388 6.8204 9.28181 6.64403C9.05902 6.45838 8.94763 6.19382 8.94763 5.85036C8.94763 5.49761 9.05902 5.23305 9.28181 5.05668C9.51388 4.87103 9.84342 4.7782 10.2704 4.7782C10.7067 4.7782 11.0363 4.87103 11.259 5.05668C11.4911 5.24234 11.6071 5.50689 11.6071 5.85036C11.6071 6.18454 11.4911 6.44445 11.259 6.63011C11.0363 6.81576 10.7067 6.90859 10.2704 6.90859Z" fill="black" fill-opacity="0.5"/>
</svg>
