<svg width="16" height="16" viewBox="0 0 16 16" fill="none" xmlns="http://www.w3.org/2000/svg">
<path d="M13.8295 4.71703C13.8055 4.57723 13.7274 4.45109 13.61 4.367C11.9461 3.1722 10.4302 2.50927 8.33112 1.59188L8.22518 1.54546C8.08594 1.48485 7.92703 1.48485 7.78778 1.54546L7.67748 1.59351C5.58112 2.51036 4.06578 3.17275 2.403 4.367C2.2774 4.4571 2.19658 4.59635 2.17911 4.7487C2.15126 4.93218 2 6.02759 2 8.09501C2 10.1733 2.16819 10.8057 2.20205 10.9116C2.23918 11.0285 2.31508 11.1295 2.41665 11.1983C4.20776 12.4079 6.3762 13.31 7.94232 13.4962C7.94451 13.4962 7.98 13.5 8.00676 13.5C8.02314 13.5 8.06846 13.4967 8.07174 13.4962C9.63732 13.31 11.8063 12.4079 13.5974 11.1983C13.6995 11.1295 13.7749 11.0285 13.812 10.9116C13.8459 10.8057 14.0141 10.1733 14.0141 8.09501C14.0141 5.86705 13.8295 4.71867 13.8295 4.71703ZM8.00676 2.64197C9.70558 3.38462 11.0123 3.96181 12.3229 4.81041C11.0123 5.659 9.70558 6.23619 8.00676 6.9783C6.30739 6.23565 5.00065 5.659 3.68954 4.81041C5.0001 3.96181 6.30685 3.38517 8.00676 2.64197ZM3.21118 10.4147C3.16586 10.1297 3.09214 9.45527 3.09214 8.09446C3.09214 7.07823 3.13036 6.30609 3.17023 5.77476C4.49335 6.62335 5.79463 7.20273 7.46014 7.93119V12.3041C6.18889 12.0185 4.57908 11.307 3.21118 10.4147ZM12.8023 10.4147C11.4339 11.3075 9.82353 12.0185 8.55228 12.3041V7.93174C10.2178 7.20383 11.5191 6.62335 12.8427 5.77476C12.8826 6.30609 12.9208 7.07878 12.9208 8.09446C12.9208 9.46018 12.846 10.1351 12.8023 10.4147Z" fill="black"/>
</svg>
