<svg width="17" height="17" viewBox="0 0 17 17" fill="none" xmlns="http://www.w3.org/2000/svg">
<path d="M2.83359 8.49997C2.83359 8.68783 2.90821 8.86799 3.04105 9.00083C3.17389 9.13367 3.35406 9.2083 3.54192 9.2083C3.72978 9.2083 3.90994 9.13367 4.04278 9.00083C4.17562 8.86799 4.25025 8.68783 4.25025 8.49997C4.25025 8.3121 4.17562 8.13194 4.04278 7.9991C3.90994 7.86626 3.72978 7.79164 3.54192 7.79164C3.35406 7.79164 3.17389 7.86626 3.04105 7.9991C2.90821 8.13194 2.83359 8.3121 2.83359 8.49997ZM7.7919 8.49997C7.7919 8.68783 7.86653 8.86799 7.99937 9.00083C8.13221 9.13367 8.31237 9.2083 8.50023 9.2083C8.68809 9.2083 8.86826 9.13367 9.0011 9.00083C9.13394 8.86799 9.20856 8.68783 9.20856 8.49997C9.20856 8.3121 9.13394 8.13194 9.0011 7.9991C8.86826 7.86626 8.68809 7.79164 8.50023 7.79164C8.31237 7.79164 8.13221 7.86626 7.99937 7.9991C7.86653 8.13194 7.7919 8.3121 7.7919 8.49997ZM12.7502 8.49997C12.7502 8.68783 12.8248 8.86799 12.9577 9.00083C13.0905 9.13367 13.2707 9.2083 13.4585 9.2083C13.6464 9.2083 13.8266 9.13367 13.9594 9.00083C14.0923 8.86799 14.1669 8.68783 14.1669 8.49997C14.1669 8.3121 14.0923 8.13194 13.9594 7.9991C13.8266 7.86626 13.6464 7.79164 13.4585 7.79164C13.2707 7.79164 13.0905 7.86626 12.9577 7.9991C12.8248 8.13194 12.7502 8.3121 12.7502 8.49997Z" stroke="#818181" stroke-opacity="0.48" stroke-width="1.36615" stroke-linecap="round" stroke-linejoin="round"/>
</svg>
