<svg width="25" height="33" viewBox="0 0 25 33" fill="none" xmlns="http://www.w3.org/2000/svg">
<path d="M12.8008 16.7101C13.3103 16.269 13.719 15.7236 13.9991 15.1106C14.2791 14.4977 14.4241 13.8317 14.4241 13.1578C14.4241 11.8916 13.9211 10.6771 13.0256 9.78176C12.1303 8.88635 10.9159 8.38333 9.64959 8.38333C8.38331 8.38333 7.1689 8.88635 6.27351 9.78176C5.3781 10.6771 4.87508 11.8916 4.87508 13.1578C4.87507 13.8317 5.02003 14.4977 5.30014 15.1106C5.58023 15.7236 5.9889 16.269 6.49841 16.7101C5.16168 17.3154 4.02758 18.2928 3.23168 19.5256C2.43578 20.7585 2.01178 22.1944 2.01038 23.6618C2.01038 23.915 2.11098 24.1579 2.29006 24.337C2.46914 24.516 2.71202 24.6167 2.96528 24.6167C3.21854 24.6167 3.46142 24.516 3.6405 24.337C3.81957 24.1579 3.92018 23.915 3.92018 23.6618C3.92018 22.1422 4.52381 20.6849 5.59829 19.6105C6.67276 18.5359 8.13005 17.9323 9.64959 17.9323C11.1691 17.9323 12.6264 18.5359 13.7009 19.6105C14.7754 20.6849 15.379 22.1422 15.379 23.6618C15.379 23.915 15.4796 24.1579 15.6587 24.337C15.8377 24.516 16.0807 24.6167 16.3339 24.6167C16.5871 24.6167 16.8301 24.516 17.0091 24.337C17.1882 24.1579 17.2888 23.915 17.2888 23.6618C17.2874 22.1944 16.8634 20.7585 16.0675 19.5256C15.2716 18.2928 14.1375 17.3154 12.8008 16.7101ZM9.64959 16.0225C9.08301 16.0225 8.52915 15.8546 8.05805 15.5397C7.58695 15.225 7.21977 14.7775 7.00295 14.2541C6.78613 13.7307 6.7294 13.1547 6.83993 12.599C6.95046 12.0433 7.2233 11.5328 7.62394 11.1322C8.02458 10.7315 8.53502 10.4587 9.09071 10.3482C9.64641 10.2376 10.2224 10.2944 10.7459 10.5112C11.2693 10.728 11.7168 11.0952 12.0315 11.5663C12.3463 12.0374 12.5143 12.5913 12.5143 13.1578C12.5143 13.9176 12.2125 14.6462 11.6752 15.1835C11.138 15.7207 10.4094 16.0225 9.64959 16.0225ZM18.9503 16.3281C19.5615 15.6399 19.9606 14.7899 20.0998 13.8801C20.2391 12.9703 20.1124 12.0397 19.7351 11.2003C19.3577 10.3609 18.7458 9.64839 17.973 9.14861C17.2001 8.64884 16.2993 8.38308 15.379 8.38333C15.1258 8.38333 14.8828 8.48394 14.7038 8.66301C14.5247 8.84209 14.4241 9.08497 14.4241 9.33823C14.4241 9.59149 14.5247 9.83437 14.7038 10.0135C14.8828 10.1925 15.1258 10.2931 15.379 10.2931C16.1387 10.2931 16.8674 10.595 17.4046 11.1322C17.9419 11.6694 18.2437 12.3981 18.2437 13.1578C18.2424 13.6594 18.1093 14.1518 17.858 14.5858C17.6066 15.0198 17.2457 15.3803 16.8114 15.631C16.6697 15.7127 16.5515 15.8294 16.468 15.9697C16.3843 16.1102 16.3382 16.2698 16.3339 16.4332C16.3299 16.5953 16.3672 16.7557 16.4425 16.8994C16.5176 17.043 16.6281 17.1653 16.7636 17.2544L17.136 17.5026L17.2602 17.5695C18.4112 18.1154 19.3822 18.9789 20.059 20.0582C20.7356 21.1376 21.0898 22.3878 21.0798 23.6618C21.0798 23.915 21.1804 24.1579 21.3595 24.337C21.5385 24.516 21.7814 24.6167 22.0347 24.6167C22.2879 24.6167 22.5308 24.516 22.7099 24.337C22.8889 24.1579 22.9896 23.915 22.9896 23.6618C22.9974 22.1964 22.6303 20.7534 21.9234 19.4698C21.2164 18.1863 20.1929 17.1047 18.9503 16.3281Z" fill="black"/>
</svg>
